<svg id="Layer_1" data-name="Layer 1" xmlns="http://www.w3.org/2000/svg" xmlns:xlink="http://www.w3.org/1999/xlink" viewBox="0 0 809.83 142.62"><defs><style>.cls-1,.cls-15,.cls-19,.cls-36,.cls-43{fill:none;}.cls-14,.cls-2{fill:#fff;}.cls-3{fill:#e9d5b0;}.cls-14,.cls-18,.cls-20,.cls-3,.cls-42{fill-rule:evenodd;}.cls-4{clip-path:url(#clip-path);}.cls-5{fill:url(#linear-gradient);}.cls-6{clip-path:url(#clip-path-2);}.cls-7{fill:url(#linear-gradient-2);}.cls-8{clip-path:url(#clip-path-3);}.cls-9{fill:url(#linear-gradient-3);}.cls-10{clip-path:url(#clip-path-4);}.cls-11{clip-path:url(#clip-path-5);}.cls-12{clip-path:url(#clip-path-6);}.cls-13{fill:url(#radial-gradient);}.cls-15{stroke:#fff;}.cls-15,.cls-19,.cls-36,.cls-43{stroke-miterlimit:2.61;stroke-width:0;}.cls-16{clip-path:url(#clip-path-7);}.cls-17{fill:url(#radial-gradient-2);}.cls-18{fill:#c9a42e;}.cls-19{stroke:#c9a42e;}.cls-20,.cls-35{fill:#f9c911;}.cls-21{clip-path:url(#clip-path-8);}.cls-22{clip-path:url(#clip-path-9);}.cls-23{fill:url(#linear-gradient-4);}.cls-24{clip-path:url(#clip-path-10);}.cls-25{clip-path:url(#clip-path-11);}.cls-26{fill:url(#linear-gradient-5);}.cls-27{clip-path:url(#clip-path-12);}.cls-28{clip-path:url(#clip-path-13);}.cls-29{fill:url(#linear-gradient-6);}.cls-30{clip-path:url(#clip-path-14);}.cls-31{clip-path:url(#clip-path-15);}.cls-32{fill:url(#linear-gradient-7);}.cls-33{clip-path:url(#clip-path-16);}.cls-34{fill:url(#linear-gradient-8);}.cls-36{stroke:#f9c911;}.cls-37{clip-path:url(#clip-path-18);}.cls-38{clip-path:url(#clip-path-19);}.cls-39{clip-path:url(#clip-path-20);}.cls-40{clip-path:url(#clip-path-21);}.cls-41{clip-path:url(#clip-path-22);}.cls-42{fill:#aa9176;}.cls-43{stroke:#aa9176;}.cls-44{fill:url(#linear-gradient-9);}.cls-45{fill:url(#linear-gradient-10);}.cls-46{fill:#6d4d32;}.cls-47{fill:#405864;}</style><clipPath id="clip-path"><path class="cls-1" d="M384.8,5.05l-1.09-.21c-1.83-.37-3.72-.74-5.52-1a.34.34,0,0,0-.29.08.33.33,0,0,0-.13.26l0,1.43v.86c-1.49-.21-2.9-.36-4.39-.51l-1.19-.13V3.38a.36.36,0,0,0-.32-.35c-2.13-.21-4.3-.38-6.48-.52a.34.34,0,0,0-.27.1.36.36,0,0,0-.11.26V5.26c-1.88-.08-3.81-.14-5.75-.18V2.65a.35.35,0,0,0-.35-.35h-2.69c-1.25,0-2.52,0-3.79,0a.35.35,0,0,0-.35.35V5.1c-1.88.05-3.81.11-5.74.2V2.9a.32.32,0,0,0-.12-.26.38.38,0,0,0-.27-.1c-2.11.14-4.29.31-6.48.53a.35.35,0,0,0-.32.35V5.84c-1.95.21-3.63.42-5.47.67V4.07a.37.37,0,0,0-.13-.27.34.34,0,0,0-.29-.08c-1.38.22-2.87.53-4.31.84l-2.44.49a.35.35,0,0,0-.29.35V8a.33.33,0,0,0,0,.17l1.06,2a.36.36,0,0,0,.28.19.44.44,0,0,0,.16,0,175.67,175.67,0,0,1,27.06-2.27c9.15,0,18.13,1.08,28.78,2.75h.06a.32.32,0,0,0,.23-.08.35.35,0,0,0,.13-.27v-.32l.87-1.63.2-.38a.47.47,0,0,0,0-.17V5.4A.36.36,0,0,0,384.8,5.05Z"/></clipPath><linearGradient id="linear-gradient" x1="324.31" y1="6.21" x2="387.97" y2="6.21" gradientUnits="userSpaceOnUse"><stop offset="0" stop-color="#d7b46d"/><stop offset="0.51" stop-color="#ecd8b0"/><stop offset="0.52" stop-color="#ecd7af"/><stop offset="1" stop-color="#d7b46b"/></linearGradient><clipPath id="clip-path-2"><path class="cls-1" d="M327.38,10.8a181.88,181.88,0,0,1,29.23-2.46,144.17,144.17,0,0,1,27.28,2.46l-.5.83-1.75,1.65a196.7,196.7,0,0,0-26.27-2.19,177.79,177.79,0,0,0-25.46,2.19Z"/></clipPath><linearGradient id="linear-gradient-2" x1="327.07" y1="10.67" x2="384.31" y2="10.67" gradientUnits="userSpaceOnUse"><stop offset="0" stop-color="#b69544"/><stop offset="0.51" stop-color="#c6a765"/><stop offset="1" stop-color="#b79542"/></linearGradient><clipPath id="clip-path-3"><path class="cls-1" d="M326.22,27.13s14.66-1.72,30.43-2.06a147.25,147.25,0,0,1,28.93,2.17c0,.08-6.17-14.18-6.17-14.18S369,11.74,356.52,11.42a141.71,141.71,0,0,0-24.44,1.75Z"/></clipPath><linearGradient id="linear-gradient-3" x1="325.89" y1="19.31" x2="386.13" y2="19.31" gradientUnits="userSpaceOnUse"><stop offset="0" stop-color="#dab772"/><stop offset="0.51" stop-color="#dfc18a"/><stop offset="1" stop-color="#dab772"/></linearGradient><clipPath id="clip-path-4"><path class="cls-1" d="M356.79,25A228.32,228.32,0,0,0,319,28.26L304.49,46.64c22,14-.22,29.48-.22,50.52s44,29.27,51.38,43.3c7.34-14,51.39-22.27,51.39-43.3s-22.25-36.5-.23-50.52L392.36,28.26A190.51,190.51,0,0,0,356.8,25Z"/></clipPath><clipPath id="clip-path-5"><path class="cls-1" d="M321.36,32.26,310.53,45.8c4.12,3.42,7.18,7.72,7.81,13.32.75,6.65-2.19,13.33-4.69,19.36s-5,12.13-5,18.68a10.48,10.48,0,0,0,.48,3.13c2.47,8,15,14.59,21.93,18.29,5.51,2.92,11.2,5.68,16.53,8.93a47,47,0,0,1,8.21,5.84,44.83,44.83,0,0,1,7.88-5.84c5.33-3.25,11-6,16.53-8.93,7.45-4,22.41-11.63,22.41-21.42,0-6.55-2.5-12.71-5-18.68s-5.38-12.7-4.63-19.35c.63-5.6,3.71-9.76,7.82-13.18L389.92,32.22a185.61,185.61,0,0,0-33.13-2.9,222.08,222.08,0,0,0-35.43,2.94"/></clipPath><clipPath id="clip-path-6"><rect class="cls-1" x="306.4" y="27.15" width="99.49" height="108.62"/></clipPath><radialGradient id="radial-gradient" cx="347.63" cy="82.55" r="52.81" gradientTransform="translate(3.74) scale(1.01 1)" gradientUnits="userSpaceOnUse"><stop offset="0" stop-color="#00a468"/><stop offset="0.39" stop-color="#009b5f"/><stop offset="1" stop-color="#008547"/></radialGradient><clipPath id="clip-path-7"><path class="cls-1" d="M327.25,76.93H384c.47-18.14-9-36.75-28.38-36.75s-28.86,18.61-28.39,36.75"/></clipPath><radialGradient id="radial-gradient-2" cx="337.73" cy="71.37" r="38.11" gradientTransform="translate(3.74) scale(1.01 1)" gradientUnits="userSpaceOnUse"><stop offset="0" stop-color="#dfefdf"/><stop offset="0.14" stop-color="#d6ece0"/><stop offset="0.37" stop-color="#bde4e2"/><stop offset="0.65" stop-color="#95d6e6"/><stop offset="0.99" stop-color="#5dc4ec"/><stop offset="1" stop-color="#5bc3ec"/></radialGradient><clipPath id="clip-path-8"><path class="cls-1" d="M327.23,75.73c0,1.35.07,2.7.18,4,6.57.21,15-.18,15.25,1.07,0,.17.38.08.68,0s.58-.17.42,0c-3,3.34.72,9.09,4.52,12,11.84,9.17,7.51,14.33-2.07,16.4a26.46,26.46,0,0,0,9.43,1.66c10.92,0,18.68-5.85,23.3-14.19-7.08-2.81-19.07-4.28-21.86-10.57-.91-2.07,4.74-6,5.62-7.68,1.71-3.28-9.39-2.58-9.09-2.81l-26.18-.14c.09,0,0,.07-.2.17"/></clipPath><clipPath id="clip-path-9"><rect class="cls-1" x="324.61" y="73.84" width="56.85" height="39.42"/></clipPath><linearGradient id="linear-gradient-4" x1="325.01" y1="97.13" x2="380.52" y2="97.13" gradientUnits="userSpaceOnUse"><stop offset="0" stop-color="#fff"/><stop offset="0.18" stop-color="#fffbf6"/><stop offset="0.48" stop-color="#fdeedd"/><stop offset="0.85" stop-color="#fbdbb5"/><stop offset="1" stop-color="#fad2a3"/></linearGradient><clipPath id="clip-path-10"><path class="cls-1" d="M327.23,75.38c-1.46,7.78,1.91,19.85,9,27.38,5.79,6.18,14,8.85,17.35,8.36.67-.1,1.25.21,1.46-.19,7.28-13.72-19.27-29.08-.41-35.18,3.47-1.13-19.32-.18-27.37-.18"/></clipPath><clipPath id="clip-path-11"><rect class="cls-1" x="324.55" y="73.92" width="39.37" height="39.42"/></clipPath><linearGradient id="linear-gradient-5" x1="326.3" y1="93.07" x2="363.65" y2="93.07" gradientUnits="userSpaceOnUse"><stop offset="0" stop-color="#00adb3"/><stop offset="0.18" stop-color="#09afb5"/><stop offset="0.47" stop-color="#22b4b9"/><stop offset="0.84" stop-color="#4abdc1"/><stop offset="1" stop-color="#5ec1c5"/></linearGradient><clipPath id="clip-path-12"><path class="cls-1" d="M380.6,59.16c-6.71.07-5.89,8-10.52,8.54-1.1.11-4-1-5.93-1.25-2.6-.42-7.71,5.82-8.82,9.09H384a46.51,46.51,0,0,0-2.92-16.34,4,4,0,0,0-.49,0Z"/></clipPath><clipPath id="clip-path-13"><path class="cls-1" d="M380.6,59.16c-6.71.07-6.09,7.91-10.73,8.4-1.1.11-3.82-.81-5.72-1.11-2.6-.42-7.71,5.82-8.82,9.09H384a46.51,46.51,0,0,0-2.92-16.34,4,4,0,0,0-.49,0Z"/></clipPath><linearGradient id="linear-gradient-6" x1="369.87" y1="58.08" x2="369.87" y2="75.43" gradientUnits="userSpaceOnUse"><stop offset="0" stop-color="#15a476"/><stop offset="0.32" stop-color="#109c6d"/><stop offset="0.85" stop-color="#048654"/><stop offset="1" stop-color="#007f4c"/></linearGradient><clipPath id="clip-path-14"><path class="cls-1" d="M357.34,91.36c4.66,4.86,13.2,5.51,19.47,8.75C381.59,93.54,384,84.73,384,75.9l-28.57-.34c-2.6,4.06-4,9.66,1.87,15.8"/></clipPath><clipPath id="clip-path-15"><rect class="cls-1" x="349.11" y="74.62" width="39.08" height="28.03"/></clipPath><linearGradient id="linear-gradient-7" x1="350.81" y1="89.6" x2="384.65" y2="89.6" gradientUnits="userSpaceOnUse"><stop offset="0" stop-color="#e8b589"/><stop offset="0.31" stop-color="#e3ae80"/><stop offset="0.82" stop-color="#d49967"/><stop offset="1" stop-color="#ce915d"/></linearGradient><clipPath id="clip-path-16"><path class="cls-1" d="M368.91,75H384a48,48,0,0,0-.48-6.23c-1.46-.19-3.7-.73-5.27-.92l-.29,0c-2.59,0-4.17,4.13-9.08,7.17"/></clipPath><linearGradient id="linear-gradient-8" x1="377.94" y1="67.81" x2="377.94" y2="75.59" xlink:href="#linear-gradient-6"/><clipPath id="clip-path-18"><path class="cls-1" d="M342.46,53.68a.59.59,0,0,0,.59.58.58.58,0,1,0,0-1.16.59.59,0,0,0-.59.58"/></clipPath><clipPath id="clip-path-19"><polygon class="cls-1" points="341.88 59.88 341.4 67.86 344.82 67.86 344.32 59.88 341.88 59.88"/></clipPath><clipPath id="clip-path-20"><rect class="cls-1" x="340.99" y="58.41" width="4.18" height="1.37"/></clipPath><clipPath id="clip-path-21"><polygon class="cls-1" points="346 62.75 346 63.88 344.84 63.88 344.84 62.75 343.68 62.75 343.68 63.88 342.53 63.88 342.53 62.75 341.37 62.75 341.37 63.88 340.22 63.88 340.22 62.75 339.06 62.75 339.06 74.76 347.15 74.76 347.15 63.88 347.15 62.75 346 62.75"/></clipPath><clipPath id="clip-path-22"><path class="cls-1" d="M341.13,55.86v.19H345v-.19c0-.79-.87-1.44-1.94-1.44s-1.95.64-1.95,1.44"/></clipPath><linearGradient id="linear-gradient-9" x1="339.02" y1="68.73" x2="347.43" y2="68.73" gradientUnits="userSpaceOnUse"><stop offset="0" stop-color="#dad9d8"/><stop offset="0.34" stop-color="#e1e1e1"/><stop offset="0.9" stop-color="#f5f7fa"/><stop offset="1" stop-color="#f9fcff"/></linearGradient><linearGradient id="linear-gradient-10" x1="341.17" y1="57.59" x2="345.46" y2="57.59" xlink:href="#linear-gradient-9"/></defs><path class="cls-2" d="M428.19,30.12v-.48l3.11-3.85h.47a9.59,9.59,0,0,0,5.78,2.5c1.62,0,2.67-.5,2.67-1.35,0-1.18-1.49-1.28-3.68-1.89-3.38-.95-7.37-2.84-7.37-7.17,0-4,3.62-6.79,8.82-6.79,3.72,0,7.1,1.42,8.75,3.28v.47l-3.14,3.72h-.47a7.8,7.8,0,0,0-5-2.23c-1.29,0-2.13.47-2.13,1.25,0,1.08,1.52,1.59,3,2,3.79,1.08,8.08,2.36,8.08,7.33,0,4.56-4.26,6.93-9.16,6.93C433.77,33.87,430.18,32.31,428.19,30.12Z"/><path class="cls-2" d="M458.47,16.9v3h7.64V25h-7.64v3h10.14v5.4H451.77v-22H468.5V16.9Z"/><path class="cls-2" d="M471.85,22.48c0-6.52,5.27-11.39,12.23-11.39a12,12,0,0,1,9.26,4.22v.48l-4,3.44h-.48a6.58,6.58,0,0,0-4.76-2.13,5.38,5.38,0,1,0,0,10.75,6.54,6.54,0,0,0,4.76-2.13h.48l4,3.45v.47A11.93,11.93,0,0,1,484,33.87C477.15,33.87,471.85,29,471.85,22.48Z"/><path class="cls-2" d="M516.79,33l-.3.5h-6.66l-4.16-7.7h-1.58v7.7h-6.7v-22h10.08c5.77,0,8.88,2.84,8.88,7.34a6.38,6.38,0,0,1-4,6Zm-12.7-11.6h3.11a2.12,2.12,0,0,0,2.33-2.16,2.21,2.21,0,0,0-2.33-2.3h-3.11Z"/><path class="cls-2" d="M527.94,16.9v3h7.64V25h-7.64v3h10.14v5.4H521.25v-22H538V16.9Z"/><path class="cls-2" d="M554.6,33.46h-6.69V16.9h-6.69V11.49H561.3V16.9h-6.7Z"/><path class="cls-2" d="M584.75,33l-.31.5h-6.82l-1.29-3.31h-7.87l-1.35,3.31h-6.53l-.3-.5,10.11-21.47h4.25Zm-10.11-7.2-2.13-5.61-2.29,5.61Z"/><path class="cls-2" d="M607.59,33l-.3.5h-6.66l-4.16-7.7h-1.59v7.7h-6.69v-22h10.07c5.78,0,8.89,2.84,8.89,7.34a6.38,6.38,0,0,1-4,6Zm-12.71-11.6H598a2.12,2.12,0,0,0,2.33-2.16A2.21,2.21,0,0,0,598,16.9h-3.11Z"/><path class="cls-2" d="M618.74,11.49v22h-6.69v-22Z"/><path class="cls-2" d="M646.65,33l-.3.5h-6.83l-1.28-3.31h-7.88L629,33.46h-6.52l-.31-.5,10.11-21.47h4.26Zm-10.1-7.2-2.13-5.61-2.3,5.61Z"/><path class="cls-2" d="M679.16,22.44c0,6.63-4.43,11-11.62,11H657.29v-22h10.25C674.73,11.49,679.16,15.89,679.16,22.44Zm-6.83,0c0-3.58-2.12-5.58-5.07-5.58H664V28.06h3.27C670.21,28.06,672.33,26.06,672.33,22.48Z"/><path class="cls-2" d="M705,33l-.31.5h-6.82l-1.29-3.31h-7.87l-1.35,3.31h-6.53l-.3-.5,10.1-21.47h4.26Zm-10.11-7.2-2.13-5.61-2.29,5.61Z"/><path class="cls-2" d="M428.19,65.79v-.48l3.11-3.85h.47a9.59,9.59,0,0,0,5.78,2.5c1.62,0,2.67-.51,2.67-1.35,0-1.18-1.49-1.29-3.68-1.89-3.38-.95-7.37-2.84-7.37-7.17,0-4,3.62-6.79,8.82-6.79,3.72,0,7.1,1.42,8.75,3.28v.47l-3.14,3.72h-.47a7.8,7.8,0,0,0-5-2.23c-1.29,0-2.13.47-2.13,1.25,0,1.08,1.52,1.59,3,2,3.79,1.09,8.08,2.37,8.08,7.34,0,4.56-4.26,6.93-9.16,6.93C433.77,69.54,430.18,68,428.19,65.79Z"/><path class="cls-2" d="M458.47,52.57v3h7.64v5.07h-7.64v3h10.14v5.4H451.77v-22H468.5v5.41Z"/><path class="cls-2" d="M495.37,58.38A10.8,10.8,0,0,1,492,66.33a12,12,0,0,1-8.35,3.21c-6.69,0-11.76-4.87-11.76-11.39S477,46.76,483.61,46.76A12.21,12.21,0,0,1,492.94,51v.48l-4.06,3.44h-.47a6.15,6.15,0,0,0-4.56-2.13A5.38,5.38,0,0,0,484,63.52a5.11,5.11,0,0,0,3.15-1,3.91,3.91,0,0,0,1.38-1.76h-4.66V56.05H494.8l.47.41A17.64,17.64,0,0,1,495.37,58.38Z"/><path class="cls-2" d="M506.21,47.16v12c0,2.63,1.63,4.39,4,4.39s4-1.76,4-4.39v-12h6.59V58.79c0,6.46-4.26,10.75-10.61,10.75s-10.72-4.29-10.72-10.75V47.16Z"/><path class="cls-2" d="M545.65,68.63l-.3.5h-6.66l-4.16-7.7h-1.59v7.7h-6.69v-22h10.07c5.78,0,8.89,2.84,8.89,7.34a6.39,6.39,0,0,1-4,6ZM532.94,57h3.11a2.13,2.13,0,0,0,2.34-2.16,2.21,2.21,0,0,0-2.34-2.3h-3.11Z"/><path class="cls-2" d="M572.28,68.63l-.3.5h-6.83l-1.29-3.31H556l-1.35,3.31h-6.53l-.3-.5,10.11-21.47h4.25Zm-10.11-7.2-2.12-5.61-2.3,5.61Z"/><path class="cls-2" d="M596.41,47.16v22H592l-9.6-11v11h-6.69v-22h4.4l9.6,11v-11Z"/><path class="cls-2" d="M607.79,58.15a5.26,5.26,0,0,0,5.38,5.37,6.56,6.56,0,0,0,4.76-2.13h.47l4.06,3.45v.47a11.9,11.9,0,0,1-7.61,4.13l-.27.84c2.74,0,4.67,1.59,4.67,3.89,0,2.8-2.3,4.76-5.58,4.76a10,10,0,0,1-5.51-1.69v-.47l1.46-2.06h.47a6,6,0,0,0,2.91.81c1.21,0,2-.54,2-1.45,0-1.22-1.38-1.86-3.92-1.42l-.67-.44.88-2.77C605.36,68.66,601,64.1,601,58.15c0-6.53,5.28-11.39,12.24-11.39A12,12,0,0,1,622.46,51v.48L618.4,54.9h-.47a6.6,6.6,0,0,0-4.76-2.13A5.27,5.27,0,0,0,607.79,58.15Z"/><path class="cls-2" d="M648.41,68.63l-.3.5h-6.83L640,65.82h-7.88l-1.35,3.31h-6.52l-.31-.5,10.11-21.47h4.26Zm-10.1-7.2-2.13-5.61-2.3,5.61Z"/><path class="cls-2" d="M678.35,54.63c0,4.53-3,7.47-8.89,7.47h-3.72v7h-6.69v-22h10.41C675.24,47.16,678.35,50.14,678.35,54.63Zm-6.83.21a2.15,2.15,0,0,0-2.3-2.27h-3.48V57h3.48A2.11,2.11,0,0,0,671.52,54.84Z"/><path class="cls-2" d="M688.86,47.16v12c0,2.63,1.62,4.39,4,4.39s4-1.76,4-4.39v-12h6.59V58.79c0,6.46-4.26,10.75-10.61,10.75s-10.71-4.29-10.71-10.75V47.16Zm7.6-10.47,2.3,4v.47l-8.89,3.62h-.47l-1.49-2.57v-.47L696,36.69Z"/><path class="cls-2" d="M727.69,63c0,3.82-3.21,6.18-8.05,6.18H708.89v-22h10.25c4.42,0,7.36,2.37,7.36,5.75a4.86,4.86,0,0,1-2.84,4.49A5.82,5.82,0,0,1,727.69,63Zm-9.74-11h-2.36v4H718a2,2,0,1,0,0-4Zm3.18,10.24c0-1.32-1-2.2-2.64-2.2h-2.9v4.4h2.9C720.08,64.37,721.13,63.49,721.13,62.17Z"/><path class="cls-2" d="M747.18,69.13H732.11v-22h6.69V63.73h8.38Z"/><path class="cls-2" d="M757.83,47.16v22h-6.69v-22Z"/><path class="cls-2" d="M762.39,58.15c0-6.53,5.27-11.39,12.23-11.39A12,12,0,0,1,783.88,51v.48l-4,3.44h-.48a6.58,6.58,0,0,0-4.76-2.13,5.38,5.38,0,1,0,0,10.75,6.54,6.54,0,0,0,4.76-2.13h.48l4,3.45v.47a11.93,11.93,0,0,1-9.36,4.23C767.69,69.54,762.39,64.67,762.39,58.15Z"/><path class="cls-2" d="M809.83,68.63l-.3.5H802.7l-1.28-3.31h-7.88l-1.35,3.31h-6.52l-.31-.5,10.11-21.47h4.26Zm-10.1-7.2-2.13-5.61-2.3,5.61Z"/><path class="cls-2" d="M436.27,88.24v3h7.63v5.07h-7.63v3h10.14v5.41H429.57v-22h16.74v5.41Z"/><path class="cls-2" d="M481.38,93.78c0,6.63-4.43,11-11.63,11H459.51v-22h10.24C477,82.83,481.38,87.23,481.38,93.78Zm-6.83,0c0-3.59-2.13-5.58-5.07-5.58h-3.27V99.39h3.27C472.42,99.39,474.55,97.4,474.55,93.82Z"/><path class="cls-2" d="M492.7,88.24v3h7.64v5.07H492.7v3h10.14v5.41H486v-22h16.72v5.41Z"/><path class="cls-2" d="M514.46,88.24v3.55h7.3v5.07h-7.3v7.94h-6.69v-22h16.49v5.41Z"/><path class="cls-2" d="M535.17,88.24v3h7.64v5.07h-7.64v3h10.14v5.41H528.48v-22h16.73v5.41Z"/><path class="cls-2" d="M548.86,101.46V101L552,97.13h.47a9.59,9.59,0,0,0,5.78,2.5c1.62,0,2.67-.51,2.67-1.35,0-1.18-1.49-1.29-3.68-1.89-3.38-1-7.37-2.84-7.37-7.17,0-4,3.61-6.79,8.82-6.79,3.72,0,7.1,1.42,8.75,3.28v.47l-3.14,3.72h-.47a7.8,7.8,0,0,0-5-2.23c-1.28,0-2.13.47-2.13,1.25,0,1.08,1.53,1.58,3,2,3.79,1.09,8.08,2.37,8.08,7.34,0,4.56-4.26,6.93-9.16,6.93C554.43,105.21,550.85,103.65,548.86,101.46Z"/><path class="cls-2" d="M594,104.29l-.31.51h-6.82l-1.29-3.31h-7.87l-1.35,3.31h-6.53l-.3-.51,10.1-21.46h4.26ZM583.9,97.1l-2.13-5.62-2.3,5.62Z"/><path class="cls-2" d="M603.26,101.46V101l3.11-3.85h.47a9.59,9.59,0,0,0,5.78,2.5c1.63,0,2.67-.51,2.67-1.35,0-1.18-1.48-1.29-3.68-1.89-3.38-1-7.37-2.84-7.37-7.17,0-4,3.62-6.79,8.82-6.79,3.72,0,7.1,1.42,8.76,3.28v.47l-3.15,3.72h-.47a7.8,7.8,0,0,0-5-2.23c-1.29,0-2.13.47-2.13,1.25,0,1.08,1.52,1.58,3,2,3.78,1.09,8.07,2.37,8.07,7.34,0,4.56-4.25,6.93-9.15,6.93A13.31,13.31,0,0,1,603.26,101.46Z"/><path class="cls-2" d="M625.5,93.82c0-6.53,5.27-11.39,12.27-11.39S650,87.29,650,93.82s-5.27,11.39-12.26,11.39S625.5,100.34,625.5,93.82Zm17.71,0a5.45,5.45,0,1,0-5.44,5.37A5.3,5.3,0,0,0,643.21,93.82Z"/><path class="cls-2" d="M653.41,93.82c0-6.53,5.27-11.39,12.23-11.39a11.94,11.94,0,0,1,9.26,4.22v.47l-4,3.45h-.47a6.6,6.6,0,0,0-4.77-2.13,5.38,5.38,0,0,0,0,10.75,6.56,6.56,0,0,0,4.77-2.13h.47l4,3.45V101a11.93,11.93,0,0,1-9.36,4.23C658.72,105.21,653.41,100.34,653.41,93.82Z"/><path class="cls-2" d="M685.65,82.83v22H679v-22Z"/><path class="cls-2" d="M713.56,104.29l-.3.51h-6.83l-1.28-3.31h-7.88l-1.35,3.31H689.4l-.31-.51L699.2,82.83h4.26Zm-10.1-7.19-2.13-5.62L699,97.1Z"/><path class="cls-2" d="M732.08,104.8H717v-22h6.7V99.39h8.38Z"/><path class="cls-2" d="M444.77,125.87a6.76,6.76,0,0,1-7,6.8,7,7,0,1,1,0-13.92,7.16,7.16,0,0,1,5.66,2.58v.23l-2,1.69h-.23a4.41,4.41,0,0,0-3.41-1.59,4,4,0,0,0,.06,8.09,3.66,3.66,0,0,0,3.74-2.7h-3.78v-2.37h6.73l.23.2A8.47,8.47,0,0,1,444.77,125.87Z"/><path class="cls-2" d="M446.78,125.71c0-4,3.16-7,7.35-7s7.35,3,7.35,7a7.36,7.36,0,0,1-14.7,0Zm11.42,0a4.07,4.07,0,1,0-4.07,4A4,4,0,0,0,458.2,125.71Z"/><path class="cls-2" d="M477.36,119.2l-5.8,13.22h-2.62l-4.2-9.58c-.33-.77-.53-1-.8-1.14a.9.9,0,0,0-.66.06l-.21-.1-.55-2.19.08-.22a2.71,2.71,0,0,1,1.73-.5c1.63,0,2.5.83,3.16,2.39L470.3,128l3.74-9h3.19Z"/><path class="cls-2" d="M483.08,121.64v2.79h5V127h-5v2.82h6.55v2.65h-9.77V119h9.77v2.64Z"/><path class="cls-2" d="M504.64,131.94l-.1.23a3.24,3.24,0,0,1-1.82.5c-2,0-2.75-1.18-3.61-2.85-.44-.85-1.18-2.44-2-2.44H496v5h-3.22V119h5.84c3.41,0,5.2,1.63,5.2,4.27a3.82,3.82,0,0,1-2.78,3.76,4.33,4.33,0,0,1,.78,1.16c.39.84.77,1.61,1.47,1.61a1.37,1.37,0,0,0,.53-.15l.21.1Zm-6-6.77a1.71,1.71,0,0,0,1.9-1.73,1.75,1.75,0,0,0-1.9-1.8H496v3.53Z"/><path class="cls-2" d="M519.42,119v13.42h-2.33l-6.42-8v8h-3.22V119h2.31l6.44,8v-8Z"/><path class="cls-2" d="M522.46,125.71c0-4,3.16-7,7.35-7s7.35,3,7.35,7a7.36,7.36,0,0,1-14.7,0Zm11.42,0a4.07,4.07,0,1,0-4.07,4A4,4,0,0,0,533.88,125.71Z"/><path class="cls-2" d="M558.52,125.69c0,4-2.75,6.73-7.07,6.73h-5.88V119h5.88C555.77,119,558.52,121.68,558.52,125.69Zm-3.31,0a3.72,3.72,0,0,0-3.88-4.07h-2.54v8.13h2.54A3.71,3.71,0,0,0,555.21,125.71Z"/><path class="cls-2" d="M560.77,125.71c0-4,3.16-7,7.35-7s7.35,3,7.35,7a7.36,7.36,0,0,1-14.7,0Zm11.42,0a4.07,4.07,0,1,0-4.07,4A4,4,0,0,0,572.19,125.71Z"/><path class="cls-2" d="M587.1,121.64v2.79h5V127h-5v2.82h6.54v2.65h-9.76V119h9.76v2.64Z"/><path class="cls-2" d="M595.92,130.35v-.29l1.48-1.77h.23a5.06,5.06,0,0,0,3.57,1.65c1.18,0,2-.54,2-1.32,0-1-1.24-1.28-2.72-1.8-1.82-.62-4.05-1.5-4.05-4.09s2.25-4,5-4a6.05,6.05,0,0,1,4.77,2v.31l-1.49,1.67h-.27a4,4,0,0,0-2.95-1.38c-1,0-1.76.44-1.76,1.2s.95,1.22,2,1.61c2.18.76,4.75,1.59,4.75,4.44s-2.3,4.07-5.19,4.07A6.7,6.7,0,0,1,595.92,130.35Z"/><path class="cls-2" d="M615.45,121.64v10.78h-3.22V121.64h-4.17V119h11.58v2.64Z"/><path class="cls-2" d="M634.24,132l-.12.23a3.47,3.47,0,0,1-1.76.44,2.86,2.86,0,0,1-1.8-.56,5.62,5.62,0,0,1-1.4-2.05h-5.59l-.93,2.36h-3.39L625,119h2.79l4.29,9.62c.41.93.68,1.18,1,1.18a.9.9,0,0,0,.46-.15l.18.1Zm-9.79-4.17h3.82l-1.9-4.89Z"/><path class="cls-2" d="M649.56,125.69c0,4-2.74,6.73-7.06,6.73h-5.88V119h5.88C646.82,119,649.56,121.68,649.56,125.69Zm-3.3,0a3.72,3.72,0,0,0-3.88-4.07h-2.54v8.13h2.54A3.71,3.71,0,0,0,646.26,125.71Z"/><path class="cls-2" d="M651.82,125.71c0-4,3.15-7,7.35-7s7.35,3,7.35,7a7,7,0,0,1-7.35,7C655,132.67,651.82,129.69,651.82,125.71Zm11.41,0a4.07,4.07,0,1,0-4.06,4A4,4,0,0,0,663.23,125.71Z"/><path class="cls-2" d="M687.87,125.69c0,4-2.75,6.73-7.06,6.73h-5.89V119h5.89C685.12,119,687.87,121.68,687.87,125.69Zm-3.31,0a3.71,3.71,0,0,0-3.88-4.07h-2.54v8.13h2.54A3.7,3.7,0,0,0,684.56,125.71Z"/><path class="cls-2" d="M690.12,125.71c0-4,3.16-7,7.35-7s7.35,3,7.35,7a7.36,7.36,0,0,1-14.7,0Zm11.42,0a4.07,4.07,0,1,0-4.07,4A4,4,0,0,0,701.54,125.71Z"/><path class="cls-2" d="M715.73,125.71a3.92,3.92,0,0,0,4,4,4.41,4.41,0,0,0,3.41-1.59h.23l2,1.66V130a7.16,7.16,0,0,1-5.66,2.63,7,7,0,1,1,0-13.92,7.18,7.18,0,0,1,5.62,2.62v.23l-2,1.65h-.23a4.41,4.41,0,0,0-3.41-1.59A3.92,3.92,0,0,0,715.73,125.71Z"/><path class="cls-2" d="M731.36,121.64v2.79h5V127h-5v2.82h6.54v2.65h-9.76V119h9.76v2.64Z"/><path class="cls-2" d="M754.63,132l-.12.23a3.47,3.47,0,0,1-1.76.44,2.81,2.81,0,0,1-1.79-.56,5.51,5.51,0,0,1-1.41-2.05H744l-.93,2.36h-3.39L745.38,119h2.79l4.29,9.62c.42.93.68,1.18,1.06,1.18a.9.9,0,0,0,.45-.15l.18.1Zm-9.79-4.17h3.82l-1.9-4.89Z"/><path class="cls-2" d="M768.84,131.94l-.11.23a3.18,3.18,0,0,1-1.81.5c-2,0-2.75-1.18-3.61-2.85-.44-.85-1.18-2.44-2-2.44h-1v5H757V119h5.84c3.41,0,5.2,1.63,5.2,4.27a3.82,3.82,0,0,1-2.78,3.76,4.33,4.33,0,0,1,.78,1.16c.39.84.76,1.61,1.47,1.61a1.37,1.37,0,0,0,.53-.15l.21.1Zm-6-6.77a1.71,1.71,0,0,0,1.9-1.73,1.75,1.75,0,0,0-1.9-1.8h-2.64v3.53Z"/><path class="cls-2" d="M785.19,132l-.12.23a3.42,3.42,0,0,1-1.76.44,2.81,2.81,0,0,1-1.79-.56,5.63,5.63,0,0,1-1.41-2.05h-5.59l-.93,2.36H770.2L775.94,119h2.79l4.3,9.62c.41.93.68,1.18,1.05,1.18a.9.9,0,0,0,.45-.15l.19.1Zm-9.25-14.2-.7-1.2v-.22l4.42-2.77h.23l1.19,1.94v.23l-4.91,2Zm-.53,10h3.82l-1.9-4.89Z"/><path class="cls-2" d="M398.15,59.77c.62-5.56,4.56-9.38,9.11-12.28l.81-.51-15.2-19.3-.32-.06c-1.82-.35-3.64-.66-5.46-.95-5.54-.75-9.47-1.25-12.9-1.59l-2.82-.22h-.09l-.85-.06h-.23l-.22,0c-2.1-.13-4.19-.24-6.29-.31h0l-.75,0h0l-.63,0c-7.69-.16-14.48.1-19.31.39h0c-1.68.11-12.51,1.19-14.52,1.43l-.33,0c-2.46.34-7.51,1.12-9.36,1.41L303.58,47l.8.51c4.55,2.9,8.49,6.72,9.12,12.28s-2.33,11.8-4.39,16.76c-2.77,6.66-5.35,13.24-5.35,20.56a15.75,15.75,0,0,0,.7,4.63c1.51,4.87,5.27,8.79,9.23,11.9A100.6,100.6,0,0,0,328.84,123c5.4,2.86,11,5.56,16.19,8.74,3.48,2.11,8.1,5.24,10,8.89l.78,1.49.78-1.49c1.92-3.65,6.54-6.78,10-8.89,5.21-3.18,10.79-5.88,16.19-8.74A100.6,100.6,0,0,0,398,113.62c4-3.11,7.72-7,9.23-11.9a15.42,15.42,0,0,0,.7-4.63c0-7.32-2.57-13.9-5.34-20.56C400.48,71.57,397.53,65.22,398.15,59.77Z"/><polygon class="cls-3" points="374.42 5.68 377.48 6.15 377.51 4.29 374.42 5.68"/><polygon class="cls-3" points="347.02 3.21 346.98 5.01 348.77 4.89 347.02 3.21"/><polygon class="cls-3" points="362.84 4.87 364.62 4.98 364.59 3.19 362.84 4.87"/><g class="cls-4"><rect class="cls-5" x="324.31" width="63.66" height="12.43"/></g><g class="cls-6"><rect class="cls-7" x="327.07" y="8.06" width="57.24" height="5.22"/></g><g class="cls-8"><rect class="cls-9" x="325.89" y="10.89" width="60.24" height="16.82"/></g><path class="cls-3" d="M359.82,24.79,351,24.9a32.19,32.19,0,0,1,.56-5,6,6,0,0,1,2.2-3.17,3.74,3.74,0,0,1,3.2-.49,4.37,4.37,0,0,1,2.47,2.13A9.73,9.73,0,0,1,360.57,22a10.79,10.79,0,0,1,0,2.84Z"/><path class="cls-3" d="M369,13.87c-1.41.09-2.68,1-2.58,2.12s.78,6.49.78,6.49l5.68.41-1-7.33S370.41,13.79,369,13.87Z"/><g class="cls-11"><g class="cls-12"><rect class="cls-13" x="305.47" y="27.15" width="101.57" height="110.81"/></g></g><path class="cls-1" d="M321.36,32.26,310.53,45.8c4.12,3.42,7.18,7.72,7.81,13.32.75,6.65-2.19,13.33-4.69,19.36s-5,12.13-5,18.68a10.48,10.48,0,0,0,.48,3.13c2.47,8,15,14.59,21.93,18.29,5.51,2.92,11.2,5.68,16.53,8.93a46.55,46.55,0,0,1,8,5.94,46.61,46.61,0,0,1,8.05-5.94c5.33-3.25,11-6,16.53-8.93,7.45-4,22.41-11.63,22.41-21.42,0-6.55-2.5-12.71-5-18.68S392.22,65.77,393,59.12c.63-5.6,3.77-9.75,7.88-13.17L389.92,32.22a185.61,185.61,0,0,0-33.13-2.9,222.08,222.08,0,0,0-35.43,2.94"/><polygon class="cls-14" points="323.35 50.48 322.46 53.34 319.57 53.33 321.91 55.09 321.01 57.95 323.35 56.18 325.69 57.95 324.79 55.09 327.14 53.33 324.24 53.34 323.35 50.48"/><polygon class="cls-15" points="323.35 50.48 322.46 53.34 319.57 53.33 321.91 55.09 321.01 57.95 323.35 56.18 325.69 57.95 324.79 55.09 327.14 53.33 324.24 53.34 323.35 50.48"/><polygon class="cls-14" points="320.92 69.91 320.02 72.76 317.13 72.76 319.48 74.52 318.57 77.37 320.92 75.6 323.25 77.37 322.35 74.52 324.7 72.76 321.8 72.76 320.92 69.91"/><polygon class="cls-15" points="320.92 69.91 320.02 72.76 317.13 72.76 319.48 74.52 318.57 77.37 320.92 75.6 323.25 77.37 322.35 74.52 324.7 72.76 321.8 72.76 320.92 69.91"/><polygon class="cls-14" points="317.76 87.31 316.87 90.17 313.97 90.16 316.32 91.92 315.42 94.78 317.76 93.01 320.1 94.78 319.2 91.92 321.54 90.16 318.65 90.17 317.76 87.31"/><polygon class="cls-15" points="317.76 87.31 316.87 90.17 313.97 90.16 316.32 91.92 315.42 94.78 317.76 93.01 320.1 94.78 319.2 91.92 321.54 90.16 318.65 90.17 317.76 87.31"/><polygon class="cls-14" points="355.46 117.59 354.57 120.45 351.68 120.45 354.02 122.21 353.12 125.06 355.46 123.29 357.8 125.06 356.9 122.21 359.25 120.45 356.35 120.45 355.46 117.59"/><polygon class="cls-15" points="355.46 117.59 354.57 120.45 351.68 120.45 354.02 122.21 353.12 125.06 355.46 123.29 357.8 125.06 356.9 122.21 359.25 120.45 356.35 120.45 355.46 117.59"/><polygon class="cls-14" points="372.93 110.53 372.04 113.39 369.14 113.39 371.49 115.15 370.59 118 372.93 116.23 375.27 118 374.37 115.15 376.72 113.39 373.82 113.39 372.93 110.53"/><polygon class="cls-15" points="372.93 110.53 372.04 113.39 369.14 113.39 371.49 115.15 370.59 118 372.93 116.23 375.27 118 374.37 115.15 376.72 113.39 373.82 113.39 372.93 110.53"/><polygon class="cls-14" points="337.83 110.53 338.72 113.39 341.62 113.39 339.27 115.15 340.17 118 337.83 116.23 335.49 118 336.39 115.15 334.04 113.39 336.94 113.39 337.83 110.53"/><polygon class="cls-15" points="337.83 110.53 338.72 113.39 341.62 113.39 339.27 115.15 340.17 118 337.83 116.23 335.49 118 336.39 115.15 334.04 113.39 336.94 113.39 337.83 110.53"/><polygon class="cls-14" points="323.94 101.25 324.83 104.11 327.72 104.11 325.38 105.87 326.28 108.72 323.94 106.95 321.6 108.72 322.5 105.87 320.15 104.11 323.05 104.11 323.94 101.25"/><polygon class="cls-15" points="323.94 101.25 324.83 104.11 327.72 104.11 325.38 105.87 326.28 108.72 323.94 106.95 321.6 108.72 322.5 105.87 320.15 104.11 323.05 104.11 323.94 101.25"/><g class="cls-16"><rect class="cls-17" x="302.44" y="39.08" width="87.53" height="64.59"/></g><path class="cls-18" d="M327.24,75h16v.68h-16v-.16h0V75"/><path class="cls-19" d="M327.24,75h16v.68h-16v-.16h0Z"/><path class="cls-18" d="M327.38,71.94l15.91,3.12-.13.66-15.83-3.1c0-.22,0-.45.05-.68"/><path class="cls-19" d="M327.38,71.94l15.91,3.12-.13.66-15.83-3.1C327.35,72.4,327.36,72.17,327.38,71.94Z"/><path class="cls-18" d="M327.73,68.72l15.63,6.37-.26.62-15.47-6.3c0-.23.06-.46.1-.69"/><path class="cls-19" d="M327.73,68.72l15.63,6.37-.26.62-15.47-6.3C327.66,69.18,327.69,69,327.73,68.72Z"/><path class="cls-18" d="M328.36,65.24l15.07,9.89-.38.57L328.2,66c.05-.24.11-.48.16-.71"/><path class="cls-19" d="M328.36,65.24l15.07,9.89-.38.57L328.2,66C328.25,65.71,328.31,65.47,328.36,65.24Z"/><path class="cls-18" d="M329.4,61.36l14.08,13.83-.48.48L329.17,62.09c.08-.24.15-.49.23-.73"/><path class="cls-19" d="M329.4,61.36l14.08,13.83-.48.48L329.17,62.09C329.25,61.85,329.32,61.6,329.4,61.36Z"/><path class="cls-18" d="M331.08,57l12.44,18.27-.57.37-12.2-17.9.33-.74"/><path class="cls-19" d="M331.08,57l12.44,18.27-.57.37-12.2-17.9Z"/><path class="cls-18" d="M333.74,52.16l9.81,23.17-.63.26-9.63-22.73c.14-.24.29-.47.45-.7"/><path class="cls-19" d="M333.74,52.16l9.81,23.17-.63.26-9.63-22.73C333.43,52.62,333.58,52.39,333.74,52.16Z"/><path class="cls-18" d="M337.78,47.25l5.78,28.16-.67.13-5.69-27.7.58-.59"/><path class="cls-19" d="M337.78,47.25l5.78,28.16-.67.13-5.69-27.7Z"/><path class="cls-18" d="M343.43,43.12l.13,32.36h-.69l-.12-32,.68-.38"/><path class="cls-19" d="M343.43,43.12l.13,32.36h-.69l-.12-32Z"/><path class="cls-18" d="M350.42,40.66l-6.88,34.9-.67-.13,6.82-34.62.73-.15"/><path class="cls-19" d="M350.42,40.66l-6.88,34.9-.67-.13,6.82-34.62Z"/><path class="cls-18" d="M358.15,40.29,343.51,75.63l-.64-.26,14.56-35.14c.24,0,.48,0,.72.06"/><path class="cls-19" d="M358.15,40.29,343.51,75.63l-.64-.26,14.56-35.14C357.67,40.25,357.91,40.26,358.15,40.29Z"/><path class="cls-18" d="M365.9,42.19l-22.44,33.5-.57-.37,22.37-33.4.64.27"/><path class="cls-19" d="M365.9,42.19l-22.44,33.5-.57-.37,22.37-33.4Z"/><path class="cls-18" d="M372.7,46.52,343.41,75.75l-.49-.48,29.26-29.2.52.45"/><path class="cls-19" d="M372.7,46.52,343.41,75.75l-.49-.48,29.26-29.2Z"/><path class="cls-18" d="M377.89,52.71,343.34,75.79l-.38-.56,34.56-23.09c.13.18.25.38.37.57"/><path class="cls-19" d="M377.89,52.71,343.34,75.79l-.38-.56,34.56-23.09C377.65,52.32,377.77,52.52,377.89,52.71Z"/><path class="cls-18" d="M381.39,59.94,343.27,75.81l-.27-.62L381.16,59.3c.08.21.16.43.23.64"/><path class="cls-19" d="M381.39,59.94,343.27,75.81l-.27-.62L381.16,59.3C381.24,59.51,381.32,59.73,381.39,59.94Z"/><path class="cls-18" d="M383.39,67.64l-40.2,8.19-.14-.67L383.27,67l.12.66"/><path class="cls-19" d="M383.39,67.64l-40.2,8.19-.14-.67L383.27,67Z"/><path class="cls-18" d="M384,75.51l-40.93.31v-.67L384,74.84v.67"/><path class="cls-19" d="M384,75.51l-40.93.31v-.67L384,74.84Z"/><path class="cls-18" d="M343.22,65.19A10.4,10.4,0,0,1,353.7,75.5h-21a10.4,10.4,0,0,1,10.49-10.31"/><path class="cls-20" d="M343.22,66.08a9.42,9.42,0,0,1,9.62,9.19H333.59a9.42,9.42,0,0,1,9.63-9.19"/><g class="cls-21"><g class="cls-22"><rect class="cls-23" x="325.01" y="74.03" width="55.51" height="46.21"/></g></g><g class="cls-24"><g class="cls-25"><rect class="cls-26" x="326.3" y="74.96" width="37.36" height="36.22"/></g><path class="cls-1" d="M355,111.28h0a25.86,25.86,0,0,1-21.15-11.49c-4.52-6.44-7-15-7-24.22a.36.36,0,0,1,.36-.36h27.34a.36.36,0,0,1,.36.3.35.35,0,0,1-.25.39c-3.49,1.07-5.58,2.53-6.39,4.45-1.33,3.18,1,7.47,3.44,12,3.18,5.88,6.79,12.55,3.6,18.73A.35.35,0,0,1,355,111.28ZM327.6,75.92c.09,16.33,8.61,34,27.19,34.65,2.83-5.8-.64-12.22-3.7-17.88-2.54-4.69-4.93-9.12-3.47-12.61.73-1.73,2.34-3.1,4.9-4.16H327.6Z"/></g><g class="cls-28"><rect class="cls-29" x="354.63" y="58.08" width="30.47" height="17.36"/></g><path class="cls-14" d="M339,95.8c-3.77-7.67-1.84-12.43,3.41-15.35-2.39,4.22,1.1,7.78,6.14,11.72a25.28,25.28,0,0,0-9.42,3.56Z"/><g class="cls-30"><g class="cls-31"><rect class="cls-32" x="350.81" y="74.96" width="33.84" height="29.28"/></g></g><g class="cls-33"><rect class="cls-34" x="368.5" y="67.81" width="18.89" height="7.78"/></g><rect class="cls-35" x="341.17" y="56.42" width="3.81" height="1.99"/><rect class="cls-36" x="341.17" y="56.42" width="3.81" height="1.99"/><path class="cls-14" d="M356.89,52.1a19.91,19.91,0,0,1,7.26.87c1.8.65,2.5.62,4.16,2.18l-2.53,1.58c-2.53-2.81-5.7-3.3-9-4.24-1.37-.4-1.31-.36.08-.39"/><path class="cls-14" d="M367.19,55.13c2,.14,4.37-1.39,5.34-1.58.33-.06,1,.53.66.81a17.58,17.58,0,0,1-1.61.75,12.08,12.08,0,0,1,1.79-.78c.5.08.8.88.58,1.05,0,0-1.57.42-2.05.64a10.17,10.17,0,0,1,2.05-.64c.27,0,.56.81.19,1-1.11.71-2.58.74-3.75,1.26.45,1.76,1.6,3.77,1.55,5.59-.1,2.83-1.66,5.49-2.14,8.15-.19,1-.06,1.3-.27.1-.62-3.47-.86-9.62-2.48-11.89a8.9,8.9,0,0,0-2-1.07,8,8,0,0,0-1.9-.24c-.45.12-1.52.35-2,.48.14-.83.79-3.16,2.36-3Z"/><path class="cls-42" d="M367.94,85.4l-.06.91,1.22.89,0-1L368,85.35Zm-.55,16.19,0,.91.1.07h1.25Zm.06-1.81,0,.93,2.13,1.58,0-1Zm.07-1.8,0,.94,2,1.49,0-1Zm.06-1.81-.05.93,1.93,1.45v-1Zm.06-1.81-.05,1,1.82,1.32,0-1Zm.06-1.81-.05,1,1.69,1.26,0-1Zm.06-1.8-.05,1,1.56,1.14,0-1Zm.06-1.81-.05,1L369.21,91l0-1Zm.06-1.81-.06,1,1.35,1-.05-1Z"/><path class="cls-43" d="M367.29,101.7l0,.9.1.08h1.25Zm.06-1.81,0,.9,2.13,1.59,0-.94Zm.06-1.81,0,.9,2,1.51,0-.95Z"/><polygon class="cls-44" points="347.43 75.04 339.02 75.04 339.02 62.42 347.41 62.42 347.43 75.04"/><path class="cls-45" d="M344.83,62.22l-3.58,0,.11-1.83-.19-.23,0-5.17a5.68,5.68,0,0,0,.81-.84c.4-.49.66-1.13,1.17-1.13.74,0,.53.59.86,1.07a13.33,13.33,0,0,0,1.24,1.4l.08,2.94.09,1.79-.75.16Z"/><rect class="cls-35" x="341.4" y="56.52" width="3.42" height="1.59"/><path class="cls-3" d="M342.15,13.85c1.41.08,2.67,1,2.58,2.11s-.78,6.49-.78,6.49l-5.68.41,1-7.33S340.74,13.76,342.15,13.85Z"/><path class="cls-46" d="M340.7,16.21c-.18,1.95-.44,3.29-.61,5.24,1-.09,1.71-.09,2.48-.16.24-1.92.44-3.35.68-5.27C342.76,14.9,341.47,15.05,340.7,16.21Z"/><path class="cls-46" d="M371.06,21.45c-.18-1.95-.43-3.29-.61-5.24-.77-1.16-2.06-1.31-2.55-.19.24,1.92.43,3.35.68,5.27C369.35,21.36,370.06,21.36,371.06,21.45Z"/><path class="cls-46" d="M359.36,24.62l-.05-.71h0c-.21-2.5-.4-6.48-3.52-6.48s-3.23,4.12-3.42,6.57h0l0,.6Z"/><path class="cls-46" d="M355.81,16.45c4.06,0,4.17,4.87,4.49,7.9,0,0,0,.16,0,.16l0,.09h.79l0-.23h0c-.08-.82-.15-1.71-.28-2.6l1.87,0,.25,2.6h0l.06.19h.72v-.17h0l-.25-2.6,3.36.13.13,1,1.51.15c.83.08,1.67.09,2.51.16l2.23.18-.1-1.14c1.44.1,2.88.23,4.32.37l.7,2.74.1.42.72,0-.11-.69-.61-2.41,5.26.63L384.57,26h0l.11.24h0l.08.21.9.12v-.18h0L379.9,13.37l2,.32,2.13-1.8,1.52-3.24a17.75,17.75,0,0,0,.1-3.77c-1.18-.23-7.72-1.55-8.23-1.48L372.8,5.48V2.8l-8.23-.66v0l-2.83,2.65-1.82,0V2l-8.23,0V4.79l-1.79.06-2.85-2.68-8.24.66V5.49l-4.64-2.06c-.54-.07-7,1.22-8.23,1.45A18.41,18.41,0,0,0,326,8.64c1.91,3.91.53,2.48,3.92,5l1.59-.24-5.61,13.16c0,.1,0,.07,0,.07l0,.18.84-.12.11-.18h0l1.3-3h0l5.25-.62-.72,2.82,0,.1,0,.55h.68l.34-1.33.56-2.22c1.3-.13,2.6-.24,3.9-.35l-.1,1,2.24-.18c.84-.07,1.68-.08,2.51-.16l1.51-.15.12-1c1.27-.06,2.53-.11,3.8-.15l-.2,2-.08,1h.74l0-.33v-.08h0l.25-2.64,1.93-.05.12-.74-6.51.27c.11-.88.22-1.76.34-2.64l7-.31A18.33,18.33,0,0,0,350.61,24h0l-.07.71h.75l0-.37h0C351.64,21.4,351.84,16.45,355.81,16.45Zm10.92-2q-5.24-.3-10.49-.32V11.52c4,0,8,.19,12,.51l.24,1.4-.3.07A2.92,2.92,0,0,0,366.73,14.4Zm-.7,1.85c.06.52.13,1.05.2,1.57l-3.18-.13-.23-2.75c1.14,0,2.29.09,3.44.16l-.09.18-.21.47Zm5,6.12c-.83-.06-1.66-.08-2.49-.16l-.76-.07-.09-.74c-.22-1.76-.46-3.51-.68-5.26l0-.25.11-.24a2.15,2.15,0,0,1,1.4-1.26,2.71,2.71,0,0,1,2.8,1.31l.13.2,0,.23c.16,1.75.45,3.48.61,5.23l.1,1.1Zm1.35-6.32,0-.47,0,0c1.12.11,2.24.22,3.36.35l.69,2.7c-1.24-.13-2.48-.25-3.73-.35C372.49,17.51,372.4,16.78,372.33,16.05Zm10.74,6.58h-.13c-3.31-.44-6.64-.77-10-1l0-.31c-.07-.77-.16-1.53-.26-2.3,3.09.26,6.18.6,9.24,1Zm-1.5-3.4-.13,0-4.34-.54L376.41,16l4,.52ZM380,15.71l-.14,0-8.14-.87a3.8,3.8,0,0,0-2.51-1.41L369,12.09q5,.44,9.93,1.14ZM377.48,4.37l0,1.73c-1-.13-2-.26-2.93-.44Zm-12.91-1.1V4.92l-1.67-.07Zm-17.52,0,1.7,1.61-1.7.07ZM334.17,4.43l3,1.33-3,.38Zm-6.28,5.84c-1.34-2.55-1.06-1.62-1.06-4.66,2.15-.42,4.29-.8,6.44-1.14V7.16c2.15-.3,4.29-.56,6.44-.79V3.63q3.21-.31,6.44-.52V5.88c2.14-.1,4.29-.18,6.44-.22V2.88c2.14,0,4.29,0,6.44,0V5.64c2.14,0,4.29.1,6.43.2V3.08c2.15.14,4.29.31,6.45.52V6.32q3.21.34,6.43.8V4.44q3.23.52,6.45,1.17c0,3.12.29,2-1.1,4.71A181.92,181.92,0,0,0,355,8a176.43,176.43,0,0,0-27.06,2.26Zm2.3,2.43-2.14-1.57a169,169,0,0,1,55.46.06l-1.82,1.56-9.41-1.24A159.61,159.61,0,0,0,330.19,12.7Zm2.3.55c3.36-.48,6.73-.87,10.1-1.15l-.22,1.3a3.7,3.7,0,0,0-3,1.5l-7.9.83Zm-1.39,3.27h0l4-.51-.7,2.76-4.57.55Zm7.11,4.76,0,.42q-4.87.38-9.71,1l1.11-2.61h0c2.94-.4,5.89-.72,8.85-1C338.36,19.83,338.27,20.55,338.21,21.28Zm.61-5.23c-.07.77-.17,1.54-.27,2.31-1.1.09-2.2.2-3.29.31l.7-2.76,2.9-.29Zm5.37.09c-.22,1.75-.46,3.5-.68,5.26l-.1.74-.75.07c-.83.08-1.66.1-2.5.16l-1.12.09.11-1.1c.16-1.75.45-3.48.61-5.23l0-.23.13-.2a2.7,2.7,0,0,1,2.8-1.31,2.15,2.15,0,0,1,1.4,1.26l.11.24Zm.27-1.7a3,3,0,0,0-1.35-.9l.25-1.51c4-.32,8.07-.5,12.13-.51v2.56C351.81,14.11,348.13,14.22,344.46,14.44Zm4.08,3.3c-1.21,0-2.42.1-3.63.17l.21-1.66.07-.5-.21-.47-.06-.13c1.28-.07,2.57-.14,3.85-.19Zm.75,0,.23-2.78c4.18-.14,8.37-.16,12.54,0l.24,2.76-2.83-.06a7.5,7.5,0,0,1,.42.74l6.44.26c.12.89.23,1.77.34,2.65l-6-.23.05.32c-.46-2.87-1.54-5.63-4.91-5.63a4,4,0,0,0-3.62,1.92Z"/><rect class="cls-47" x="342.32" y="66.92" width="2" height="1.93"/><path class="cls-47" d="M347.05,96.91a.65.65,0,0,0,0-1.07h-1.62v-1a.38.38,0,0,0-.38-.37h-.9a.38.38,0,0,0-.38.37v.89l0,.09h-3.7a25.68,25.68,0,0,1,8.31-3l1.57-.32-1.26-1c-2.22-1.73-6.2-4.8-6.51-7.8a4.66,4.66,0,0,1,.66-2.77l1.3-2.29L341.85,80c-6.55,3.65-6.62,9.67-3.6,15.84h-.95v-.56H336v.56H334.6c-.37.29-.37.64,0,1.07A39.38,39.38,0,0,0,347.05,96.91Zm-4.83-16.27c-2.38,4.21,1,7.58,6,11.51A24.46,24.46,0,0,0,339,95.68C335.42,88.49,337,83.55,342.22,80.64Z"/><path class="cls-47" d="M363.6,56.66a.35.35,0,0,0-.37.33.37.37,0,0,0,.32.39.36.36,0,0,0,.37-.33A.37.37,0,0,0,363.6,56.66Z"/><path class="cls-47" d="M398.15,59.77c.62-5.56,4.56-9.38,9.11-12.28l.81-.51-15.2-19.3-.32-.06c-1.82-.35-3.64-.66-5.46-.95-5.54-.75-9.47-1.25-12.9-1.59l-2.82-.22h-.09l-.85-.06h-.23l-.22,0c-2.1-.13-4.19-.24-6.29-.31h0l-.75,0h0l-.63,0c-7.69-.16-14.48.1-19.31.39h0c-1.68.11-12.51,1.19-14.52,1.43l-.33,0c-2.46.34-7.51,1.12-9.36,1.41L303.58,47l.8.51c4.55,2.9,8.49,6.72,9.12,12.28s-2.33,11.8-4.39,16.76c-2.77,6.66-5.35,13.24-5.35,20.56a15.75,15.75,0,0,0,.7,4.63c1.51,4.87,5.27,8.79,9.23,11.9A100.6,100.6,0,0,0,328.84,123c5.4,2.86,11,5.56,16.19,8.74,3.48,2.11,8.1,5.24,10,8.89l.78,1.49.78-1.49c1.92-3.65,6.54-6.78,10-8.89,5.21-3.18,10.79-5.88,16.19-8.74A100.6,100.6,0,0,0,398,113.62c4-3.11,7.72-7,9.23-11.9a15.42,15.42,0,0,0,.7-4.63c0-7.32-2.57-13.9-5.34-20.56C400.48,71.57,397.53,65.22,398.15,59.77Zm-42.33,80.46c-7.31-14-51.18-22.18-51.18-43.14s22.16-36.35.22-50.33l14.4-18.3q38.73-6.51,73.12,0l14.4,18.3c-21.94,14,.22,29.38.22,50.33S363.13,126.26,355.82,140.23Z"/><polygon class="cls-3" points="334.13 6.18 337.33 5.77 334.13 4.38 334.13 6.18"/><path class="cls-47" d="M398.46,78.14c-2.43-5.84-5.35-12.42-4.62-18.87.59-5.25,3.45-9.35,7.47-12.69L402,46,390.41,31.59l-.32-.06c-22.72-4.1-45.85-3.63-68.59,0l-.34.06L309.64,46l.65.54c4,3.34,6.88,7.44,7.47,12.69.73,6.45-2.19,13-4.62,18.87-2.51,6.07-5,12.28-5,18.93a11.29,11.29,0,0,0,.52,3.37c2.55,8.24,15,14.86,22.26,18.73,5.5,2.91,11.11,5.64,16.42,8.87a45.78,45.78,0,0,1,7.87,5.8l.61.59.61-.59a45.78,45.78,0,0,1,7.87-5.8c5.31-3.23,10.92-6,16.42-8.87,7.91-4.2,22.77-11.89,22.77-22.1C403.47,90.42,401,84.21,398.46,78.14Zm-18.18,40.27c-5.49,2.91-11.16,5.67-16.47,8.9a46.67,46.67,0,0,0-8,5.91,46.67,46.67,0,0,0-8-5.91c-5.31-3.23-11-6-16.47-8.9-6.95-3.68-19.38-10.28-21.84-18.22a10.36,10.36,0,0,1-.48-3.12c0-6.52,2.49-12.66,5-18.6s5.42-12.67,4.67-19.29c-.62-5.58-3.67-9.86-7.77-13.26l6.14-7.7,15.09,14.89c-9.57,16.12-7.28,42,7.13,53.24a26.32,26.32,0,0,0,16.58,5.53c10.46,0,18.13-5.14,23-12.68l12.79,12.62A116.45,116.45,0,0,1,380.28,118.41Zm-21.9-78a1.88,1.88,0,0,1,.31,0,25.71,25.71,0,0,1,6,1.33h0l.58.21.1,0h0l.64.27h0l.14.07.18.07.15.07a24.45,24.45,0,0,1,5.21,3.2l.05,0c.25.2.63.51,1,.88h0l.31.29.1.09a28.71,28.71,0,0,1,4.29,5.07h0l0,.05.06.09h0l.37.56h0l-.15-.24.15.24h0l0,0,0,.07h0a36.65,36.65,0,0,1,2.84,5.59h-.22a6.91,6.91,0,0,0-6.17,3.65c0,.07-.37.65-.59,1a19.74,19.74,0,0,1-1.62,2.55c.11-.45.21-.91.28-1.39,0-.21,0-.42.07-.64h0c0-.27,0-.76,0-.76-.05-1.68-.87-3.2-1.37-4.79A12.16,12.16,0,0,0,374.49,57a1.4,1.4,0,0,0,.23-1.94,3.27,3.27,0,0,0-.12-.5,3.79,3.79,0,0,0-.24-.39,1.78,1.78,0,0,0-.5-.45,1.45,1.45,0,0,0-1.5-.88,7,7,0,0,0-1.54.61,19.9,19.9,0,0,1-1.84.78l-.56.17a17,17,0,0,0-2.16-1.31h0c-.24-.12-.5-.24-.93-.42l-.68-.26a17.46,17.46,0,0,0-4.77-1h0c-.54,0-1.06-.05-1.81-.07h-.87c-.58,0-1.68-.14-1.79.69s1,1,1.52,1.13l.07,0,1.59.44h0a19.41,19.41,0,0,1,4.48,1.62,2.45,2.45,0,0,0-1.79,1.55l-.16.37a8.94,8.94,0,0,0-.4,1.42h0l-.16.92,1.14-.31c.47-.13,1-.19,1.51-.31a5.92,5.92,0,0,1,1.54.3h0a11.2,11.2,0,0,1,1.13.47.25.25,0,0,1,.09,0,1.81,1.81,0,0,1,.77.49h0l0,.07,0,0v0A14.19,14.19,0,0,1,368,64.74h0l0,.09v0h0l.08.7h0c0,.27.06.53.08.76l0,.37-1.14-.31-.3-.08h0l-.07,0-1.53-.38-.77-.15A4.81,4.81,0,0,0,361.06,67c-.28.21-.56.44-.83.68a23.1,23.1,0,0,0-1.89,1.93h0c-.1.12-.19.24-.29.35-.47.58-.88,1.12-1.33,1.74-.19.27-.37.55-.55.83h0c-.23.37-.42.71-.56,1a13.5,13.5,0,0,0-.65,1.33h-6.88V62.07h-2.68l-.1-1.5h.8V57.75h-.69v-.9H346v-.92a2.11,2.11,0,0,0-1.4-1.9l0-.27a1.3,1.3,0,0,0-.91-1.24,1.57,1.57,0,0,0-.37-.05H343a1.32,1.32,0,0,0-1.06,1.28l0,.29a2.07,2.07,0,0,0-1.36,1.88v.92h.55v.9h-.69v2.82h.85l-.09,1.5h-2.69V74.83h-11c0-.18,0-.35,0-.52a4.1,4.1,0,0,1,0-.66c0-.69.07-.87.14-1.71h0c0-.13,0-.26,0-.39a3,3,0,0,0,0-.31A29.56,29.56,0,0,1,328.1,68c0-.22.07-.44.11-.64h0c.18-1,.35-1.82.52-2.56.09-.39.17-.7.25-1l0-.1c.1-.38.21-.76.36-1.3s.34-1.14.54-1.71c.14-.4.28-.81.43-1.21l0-.11a21.18,21.18,0,0,1,1-2.48l.09-.18a35.14,35.14,0,0,1,2-3.63v0a19.79,19.79,0,0,1,1.86-2.66l.33-.43.09-.12a18.77,18.77,0,0,1,2.37-2.56l.06-.06a25.73,25.73,0,0,1,3.77-3l.09-.06a12.84,12.84,0,0,1,1.57-.91A4,4,0,0,1,344,43a24.05,24.05,0,0,1,4.54-1.77l.09,0a16.77,16.77,0,0,1,2-.46h0a27.55,27.55,0,0,1,5.15-.47h.33l1.09,0,.37,0h0ZM327.49,75.56h27a20.42,20.42,0,0,0-2.45.93l-.22.1-.63.33c-.24.13-.47.27-.68.41h0a5.76,5.76,0,0,0-3,5A9.56,9.56,0,0,0,348,85h0l.09.3v0c.1.33.22.68.36,1,.43,1.14,1,2.23,1.5,3.32.4.78.82,1.55,1.23,2.33C353,95.44,355,99,355.8,102.76a12.14,12.14,0,0,1-.29,6.73v0c-.09.24-.18.48-.29.72s-.17.36-.26.54h0c-.7,0-1.4-.07-2.09-.14a24.84,24.84,0,0,1-10.65-3.59c-10.43-6.5-15-19.81-14.68-31.46v0Zm14.08-11.64V62.79h1.15v1.13h1.16V62.79H345v1.13h1.15V62.79h1.15v2.47h-8.06V62.79h1.15v1.13Zm1.7-9.43h0c1.07,0,1.94.65,1.94,1.44v.19h-3.87v-.19C341.34,55.14,342.21,54.49,343.27,54.49Zm-.61-.73a.59.59,0,0,1,1.18,0v.06a2.75,2.75,0,0,0-.57,0,3.05,3.05,0,0,0-.6.06Zm2,3.09v.9h-.95v-.9Zm-1.74,0v.9h-1v-.9Zm2.46,1.63v1.36h-4.16V58.48Zm-.71,3.59H342l.09-1.5h2.5Zm2.69,4v3.48h-8.06V66Zm0,4.24v4.49h-3V72.31a1.1,1.1,0,1,0-2.16,0v2.45h-2.91V70.27Zm8.45,40.54c2.44-5.16.58-10.36-1.92-15.3-1.44-2.84-3.08-5.59-4.23-8.19-.76-1.7-1.56-3.89-1.25-5.81a5,5,0,0,1,2.22-3.39,16,16,0,0,1,3.09-1.5h0l.12-.05.44-.15c-2.91,5.46-1.82,10.68,2.68,15.38,2.57,2.68,6.22,4.11,10,5.36l-.2,6h3.42v-.6c0-1.47-.07-3-.12-4.42a43.38,43.38,0,0,1,6.4,2.47,25.1,25.1,0,0,1-20.65,10.21h0ZM369.94,87l1.12,1.14.43-.41-1.25-1.28a7.11,7.11,0,0,1,2.34,2l.05.17,0,.2-.26,2.59L371.06,90l-.15-.1-.06-.21A14.34,14.34,0,0,0,369.94,87Zm.41,3.16-.54,1.24c0-1.15-.07-2.29-.1-3.44a20,20,0,0,1,.61,2.09l0,0ZM371,86.2l1.19.39.18-.56L371,85.56a7.45,7.45,0,0,1,2,.34L373,86l.08.13,1.42,2.48-1.28-.26h0l0,0A7.88,7.88,0,0,0,371,86.2Zm2.28-.85-.08,0-.08,0a7.88,7.88,0,0,0-2.26-.39l1.61-.27-.1-.58-1.9.32a11.78,11.78,0,0,1,1.69-.82l.15-.08.23,0,2.75.44ZM372.9,80l-.71.28.78-.57Zm-.2.71-.59,2.21V83l-.09,0a11,11,0,0,0-2.54,1.36l1.87-2.12-.45-.39-1.64,1.87a8.26,8.26,0,0,1,1-2l.09-.12.13,0Zm-5.28,20,0-.89,2.07,1.53,0,.94Zm1.28,1.88h-1.24l-.1-.08,0-.89Zm.41-14.47,0,.94-1.29-1,0-.9Zm-1.2-1.82,0-.82,0,0,1.09.81,0,.94ZM369.17,90l0,.94-1.41-1,0-.9Zm.06,1.89,0,1-1.53-1.14,0-.9Zm.06,1.89,0,1-1.65-1.23,0-.9Zm.07,1.9,0,.94-1.78-1.32,0-.9Zm.06,1.89,0,1-1.91-1.42,0-.9Zm.05,1.89,0,.94-2-1.5,0-.9Zm.23-18a9.27,9.27,0,0,0-.91,1.77V81.13h-.59v2.61a9.36,9.36,0,0,0-1.12-2.32l0-.16,1.32-2.52,1.36,2.61v.08Zm-2.15,2.19L365.92,82l-.43.41,2.15,2.19h0a10,10,0,0,0-2.81-1.58l-.1-.14-.61-2.28,2.22.9.14.07.09.11A8.77,8.77,0,0,1,367.55,83.69Zm-3.64-3.77-.07-.27.73.54Zm.36,3.65.17,0,.15,0,1.68.81-1.68-.28-.1.58,1.62.27a8.35,8.35,0,0,0-2.23.39h-.08l-.09,0-2-1.37Zm-.38,2.52L364,86l.11-.06a7.91,7.91,0,0,1,2-.35l-1.5.5.19.56,1.21-.41a8.8,8.8,0,0,0-2.13,2l-.06.06-.05.07-1.28.26Zm.55,2.34a7.45,7.45,0,0,1,2.11-1.86l-1.1,1.09.42.42,1.38-1.37a11.25,11.25,0,0,0-1.14,3.07h0l-.05.12L366,90l-1.3,1.34-.25-2.59v-.19Zm2.27,1.4a12.88,12.88,0,0,1,.54-1.75l-.1,3.17-.49-1.11V90Zm3.3,7.54-.15-4.61.52-1.21,0,1.69h.6l0-1.61.58,1.52.56-.21-.62-1.61,1.16,1.2.43-.41-.2-.2.17-1.74.46,1.69.58-.15-.45-1.65,1,1.39.49-.34L374,89.59l1.51,1,.32-.5-1.41-.9.47.1.18.3.34-.19.64.13.13-.58-.18,0,.36-.34-1.45-1.49,1.78,1,.3-.51-1.95-1.12,2.18.48.13-.57-1.79-.4,1.83-.06,0-.59-2,.07,2-.64-.19-.56-1.95.63,1-.66h0l.73-.49-.33-.49-.54.36-1.46-.22,1.89-.21-.06-.59-2.15.24,1.94-.83-.24-.54L374,82.2l1.61-1.37-.39-.44-1.6,1.36,1.14-1.81-.51-.31,0,0-.08-.19-.57.23.08-.31-.21-.05.39-.29-.36-.47L371.63,80,373,78.17l-.47-.35L371,79.75l.83-2.26-.56-.2-.7,1.9.18-2-.59-.06-.2,2.23-.45-2.21-.58.11.44,2.2-.7-1.35.26-.5-.54-.27-.06.13,0,0-.53.27.21.41-.65,1.26.44-2.19-.59-.11-.44,2.21-.2-2.23-.6,0,.18,2-.69-1.91-.56.2.82,2.27-1.5-1.94-.48.36,1.38,1.77-1.86-1.36-.35.48.48.35-.25.07.07.24-.61-.25-.12.28-.44.27,1.15,1.81-1.6-1.36-.4.44,1.62,1.37-2-.83-.24.54,1.94.83-2.14-.24-.07.59,1.89.21-1.3.2-.51-.34-.33.49.52.35,0,.14.16,0,1,.68-1.95-.63-.19.56,2,.64-2.05-.07,0,.59,1.84.06-1.8.4.13.57,2.18-.48L360,87.56l.3.51,1.77-1-1.45,1.49.36.34-.17,0,.12.58.64-.13.35.19.17-.3.47-.1-1.41.9.33.5,1.5-1-1.09,1.54.49.34,1-1.39-.44,1.65.57.15.46-1.69.17,1.74-.2.2.44.41,1.15-1.2L364.89,93l.56.21.58-1.52,0,1.61h.6l0-1.69.47,1.08L367,96.4c-3.63-1.21-7.09-2.59-9.5-5.11-5.51-5.76-4.58-11-2.29-15h0v0h0v0h0v0h0l.09-.17h0l.1-.17h0l.09-.15h0l1.35,0,27.11.31h0c0,8.81-2.43,17.57-7.19,24.13A43.31,43.31,0,0,0,370,97.37Zm4.67-9.74,1.18,1.21-.55-.11Zm-1.55-6.21.27-1,.48-.19Zm-9.44,0-.8-1.27.52.21Zm-1.36,6.21-.63,1.1-.55.11ZM384.07,75H369c5.07-3.14,6.58-7.44,9.33-7.12,1.56.18,3.79.73,5.24.92h0a48.25,48.25,0,0,1,.48,6.14Zm-.94-7c-.73-.12-1.45-.26-2.17-.4s-1.69-.33-2.54-.43a3.1,3.1,0,0,0-1,0c-1.53.29-2.83,1.79-3.85,2.87a24.33,24.33,0,0,1-5,4.32l-1.18.63-11.66-.13c1.51-3.38,6.08-8.73,8.49-8.35,1.18.19,2.75.67,4,1,.14,1.37.27,2.75.51,4.09.09.49.05,1.45.88,1.42s.73-1,.81-1.48a32.37,32.37,0,0,1,1.34-4.37c3-1.94,3.07-7.84,8.82-7.9a2.92,2.92,0,0,1,.51,0h0A45.12,45.12,0,0,1,383.48,68ZM363.68,56l3.44-.71c2,.14,4.42-1.53,5.38-1.71a.78.78,0,0,1,.67.41l-2,1,.25.53,2.2-1a1,1,0,0,1,.37.8l-2.36.57.14.57,2.49-.58a.54.54,0,0,1-.15.61c-1.1.71-2.56.74-3.73,1.25.44,1.76,1.6,3.76,1.54,5.57,0,.19,0,.38,0,.57l-1.29-2.68-.54.26,1.68,3.42a18.66,18.66,0,0,1-.5,1.88l-1.32-4.45-.57.16,1.56,5.25a25.61,25.61,0,0,0-1.11,3.71c-.19,1,0,1.27-.22.07-.62-3.45-.66-9.55-2.27-11.82a10.34,10.34,0,0,0-2.22-1,6.63,6.63,0,0,0-1.88-.36c-.44.12-1.28.29-1.73.41C361.59,57.79,362.12,55.83,363.68,56Zm-6.53-3.5c-1.37-.4-1.31-.36.08-.39a19.92,19.92,0,0,1,7.16,1,13.53,13.53,0,0,1,2.93,1.45h-.25l-2.81.58C362.11,53.69,359.66,53.24,357.15,52.52Zm35.46,58.6-13.14-13c9.7-16.2,7.25-42.36-7.41-53.58a26.18,26.18,0,0,0-16.26-5.35c-10.47,0-18.17,5.21-23.07,12.83l-15-14.78,3.89-4.87c22.66-3.65,45.65-4.13,68.29,0l10.81,13.54c-4.1,3.4-7.14,7.68-7.77,13.26-.75,6.62,2.18,13.29,4.67,19.29s5,12.08,5,18.6C402.6,102.5,398,107.28,392.61,111.12Z"/><rect class="cls-2" x="281.37" y="24.41" width="1.62" height="89.74"/><path class="cls-2" d="M59.16,61c0,12.46-8.37,20.56-24.46,20.56H24.46v19.34H6.05V40.46H34.7C50.6,40.46,59.16,48.65,59.16,61Zm-18.79.56c0-4.09-2.88-6.23-6.33-6.23H24.46V67.62H34C37.49,67.62,40.37,65.58,40.37,61.58Z"/><path class="cls-2" d="M120.74,100.92l-3.26-27.06L106,100.92H95.35L83.81,73.67l-3.25,27.25H62.23l9.3-60.46H82.7l17.86,37.77,16.83-37.77h11.16l9.21,60.46Z"/><path class="cls-2" d="M142.42,70.69c0-17.95,14.51-31.34,33.67-31.34A33,33,0,0,1,201.58,51v1.31l-11.16,9.48h-1.31A18.08,18.08,0,0,0,176,55.9a14.79,14.79,0,1,0,0,29.58,18,18,0,0,0,13.11-5.86h1.31l11.16,9.49v1.3C195.9,97.2,187.07,102,175.81,102,157,102,142.42,88.65,142.42,70.69Z"/><path class="cls-2" d="M227.44,55.35v8.37h21v14h-21V86h27.91v14.88H209V40.46h46V55.35Z"/></svg>